<svg xmlns="http://www.w3.org/2000/svg" viewBox="0 0 330.91 207.04"><defs><style>.cls-1{fill:#eb5e28;}.cls-2{fill:#fff;}</style></defs><g id="graphics"><path class="cls-1" d="M124.44,25.46H251.58s-3-5.18-10.72-11.87S227.32,4.67,211.48,2C194.3-.84,136.42-.09,128.06.81c-7,.76-8.91,2.86-9.73,4.07-1.54,2.28-1.49,4.59-1.1,7.79a63.42,63.42,0,0,0,1.4,7.06C119.94,25.25,122.92,25.46,124.44,25.46Z"/><path class="cls-1" d="M261.75,29.18c2.5,0,12.53-2.26,14.78-5s-1.75-5.76-4.76-7.27-8.1-4.26-12.57-2c0,0-.71,0-1.46,3.51S259.24,29.18,261.75,29.18Z"/><path class="cls-1" d="M59,37.88c4.43,1.92,41.63-12.11,41.63-12.11s4.55-1.3,7.26-7.52c2.06-4.7,5-11,2.69-13.65-.46-.54-1.85-1.94-6-.42A115.89,115.89,0,0,0,70.28,23.23C61,30.77,54.62,36,59,37.88Z"/><path class="cls-1" d="M51.59,34.08C51.7,35.56,58.28,23,76.91,12c2.62-1.56-6.61-.24-15.35,2.07-4.47,1.18-13.78,3.16-14.69,6.31C46,23.27,48.3,26,49.11,27.12A17.12,17.12,0,0,1,51.59,34.08Z"/><path class="cls-1" d="M287.74,112.68c4.34-.63,5.46-6.76,5.79-7.5,4.21-.05,4.94,0,6.59,0,3,0,2.75-5.82,3.2-17.57.21-5.37,1-11.89.44-23.71-.71-14.06-10.67-27.81-18.72-28-12-.24-18.48,2.88-23.59,15.44,2-.06,27.55,0,29.94,2.4s2.39,8.92,2.39,8.92-26.89-.7-35.11-.16c-1.65,10.69-2.51,21.07-18.76,23-25.64,3-50.82,2-59.11-12.15a78.28,78.28,0,0,0-6.91-10.18c-14.1-.14-38.68.36-40,.36-1.74,0-2.61-3.7-3-6.31-.7-4.24,1.52-3.63,31.61-5.36C155,46,144.9,40.06,130.94,35.49c-33.88-11.1-42.13-3.92-47.16,7.18-4,8.78-4.51,18-4,28.86.1,1.94,0,8.25,0,8.92C72.25,80,59.38,81.09,58.7,67s1.6-18.82,1.6-19.69-10.76-1.09-8.24-7.39-11.15.8-14.2,3a8.67,8.67,0,0,0-5,6.31,43.62,43.62,0,0,0-.51,6.26C28.69,58.27,26,69.84,26,83.71c0,9.88,1.38,18.59,3.5,23.78.61,1.52,2.35,4.67,3.88,5.58C12.42,114,0,115.17,0,116.43,0,119.51,74.08,122,165.45,122s165.46-2.5,165.46-5.58C330.91,115,314.56,113.67,287.74,112.68ZM92.24,51.53c3.61,0,6.53,11.61,6.53,25.93s-2.92,25.93-6.53,25.93-6.53-11.61-6.53-25.93S88.64,51.53,92.24,51.53ZM30.82,83.71c0-12.31,2.51-22.29,5.61-22.29S42,71.4,42,83.71,39.53,106,36.43,106,30.82,96,30.82,83.71Zm35,19.58c6.1.31,12.27.49,17.68.6,1.25,3.49,2.74,6.13,4.4,7.62-9.45.17-18.35.37-26.59.59C63,111,64.61,107.83,65.78,103.29Zm51.77,7.8a14.28,14.28,0,0,0,2.2-4c15.44-.1,90.34-.93,138.64-1.48,1.23,3,2.68,5.18,4.26,6.35-27.29-.67-60.87-1.06-97.2-1.06C148.79,110.86,132.71,110.94,117.55,111.09Z"/><path class="cls-2" d="M47.81,194.2q.48-3.37-1-5.19a18.07,18.07,0,0,0-5.84-3.88q-7.56-2.81-11.14-6.68t-2.63-10.16a13.78,13.78,0,0,1,5.66-9.48,19,19,0,0,1,11.46-3.47q7.38,0,11.48,4.11t2.88,11.25l-.11.21H49.12A7.38,7.38,0,0,0,48,165.16,5.75,5.75,0,0,0,43.12,163,6.16,6.16,0,0,0,39,164.51a5.67,5.67,0,0,0-2.1,3.71q-.52,3.24,1.16,4.95t6.92,4q7,2.68,10.21,6.57t2.28,10.41a13.8,13.8,0,0,1-5.64,9.59A19.47,19.47,0,0,1,40.32,207a19.29,19.29,0,0,1-12.09-3.73q-4.89-3.72-3.54-11.56l.07-.2h9.42q-.66,4.35,1.62,6.12a8.9,8.9,0,0,0,5.66,1.78,6.39,6.39,0,0,0,4.11-1.5A6,6,0,0,0,47.81,194.2Z"/><path class="cls-2" d="M99.41,188.23q-1.43,9.22-7.08,14A21.06,21.06,0,0,1,78.25,207q-8,0-12.39-5t-3-13.79l2.11-14q1.35-9.18,7-14A20.83,20.83,0,0,1,86,155.34q8,0,12.43,5.08t3.1,13.8Zm-7.6-14.11c.56-3.8.24-6.59-1-8.39s-3.2-2.69-6-2.69a8.87,8.87,0,0,0-6.73,2.81c-1.77,1.88-2.92,4.63-3.45,8.27l-2.11,14.11q-.9,5.81.83,8.49t6,2.7a9,9,0,0,0,6.76-2.83c1.8-1.89,3-4.67,3.56-8.36Z"/><path class="cls-2" d="M132.3,185.3h-16l-3.14,21h-9.73L111,156.07h28.72l-1.14,7.63h-19l-2.11,14h15.94Z"/><path class="cls-2" d="M174.4,163.7H162.6l-6.39,42.62h-9.76l6.38-42.62H141.34l1.14-7.63h33.06Z"/><path class="cls-2" d="M223.65,190.72l.07.21q-1.11,8.38-5.9,12.25T205,207q-7.83,0-12-4.81t-2.86-13.55l2.21-14.91q1.38-9.11,6.64-13.77a19.22,19.22,0,0,1,13.2-4.66q7.94,0,11.91,4.06t2.62,12.1l-.07.17h-9.49q.72-5-.67-6.87c-.93-1.22-2.76-1.83-5.47-1.83a7.32,7.32,0,0,0-5.82,2.68q-2.3,2.67-3.09,8l-2.24,15q-.87,5.7.71,8.23t5.57,2.54a7.32,7.32,0,0,0,5.44-1.93q1.91-1.94,2.67-6.8Z"/><path class="cls-2" d="M251.46,195.45H238.9l-4.48,10.87H224.27l21.78-50.25h10.07l6.73,50.25H252.67ZM242,187.78h8.56l-1.79-15.87-.21,0Z"/><path class="cls-2" d="M279.63,186.16l-3,20.16h-9.73l7.52-50.22h15q7.21,0,11.06,4t2.82,10.81a14.5,14.5,0,0,1-2.83,6.91,15.43,15.43,0,0,1-6,4.45,8.18,8.18,0,0,1,5,4.42,13.86,13.86,0,0,1,.7,7.49l-.55,3.65a20,20,0,0,0-.19,4.46,5.07,5.07,0,0,0,1.23,3.34l-.11.73H290.5a5.25,5.25,0,0,1-1-3.61,34.85,34.85,0,0,1,.4-5l.55-3.52q.59-4-.67-6a4.61,4.61,0,0,0-4.26-2Zm1.14-7.59h5.28a6.83,6.83,0,0,0,5-1.9,9.14,9.14,0,0,0,2.5-5.31q.56-3.66-.76-5.66c-.87-1.34-2.35-2-4.45-2H283Z"/></g></svg>